<?xml version="1.0" encoding="utf-8"?>
<!-- Generator: Adobe Illustrator 16.0.0, SVG Export Plug-In . SVG Version: 6.00 Build 0)  -->
<!DOCTYPE svg PUBLIC "-//W3C//DTD SVG 1.1//EN" "http://www.w3.org/Graphics/SVG/1.1/DTD/svg11.dtd">
<svg version="1.1" id="_x31_" xmlns="http://www.w3.org/2000/svg" xmlns:xlink="http://www.w3.org/1999/xlink" x="0px" y="0px"
	 width="841.89px" height="595.275px" viewBox="0 0 841.89 595.275" enable-background="new 0 0 841.89 595.275"
	 xml:space="preserve">
<polygon fill-rule="evenodd" clip-rule="evenodd" fill="#0194D3" points="359.513,243.324 375.408,259.381 375.408,311.83 
	359.513,327.628 "/>
<polygon fill-rule="evenodd" clip-rule="evenodd" fill="#233178" points="359.513,243.324 343.616,259.381 343.616,311.83 
	359.513,327.628 "/>
<polygon fill-rule="evenodd" clip-rule="evenodd" fill="#0070B9" points="281.336,243.206 265.44,259.263 265.44,311.711 
	281.336,327.509 "/>
<polygon fill-rule="evenodd" clip-rule="evenodd" fill="#233178" points="281.336,243.206 297.231,259.263 297.231,311.711 
	281.336,327.509 "/>
<polygon fill-rule="evenodd" clip-rule="evenodd" fill="#0085C8" points="320.217,202.288 289.027,233.794 289.027,333.628 
	320.217,364.626 "/>
<polygon fill-rule="evenodd" clip-rule="evenodd" fill="#00C2F3" points="320.217,202.288 351.406,233.794 351.406,333.628 
	320.217,364.626 "/>
<polygon fill-rule="evenodd" clip-rule="evenodd" fill="#363739" points="256.653,283.738 256.677,298.653 244.415,310.915 
	319.274,385.773 394.133,310.915 384.018,300.799 383.959,285.802 409.072,310.915 319.274,400.712 229.477,310.915 "/>
<g>
	<path fill-rule="evenodd" clip-rule="evenodd" fill="#363739" d="M443.094,343.808c0,0.238-0.009,0.438-0.029,0.608
		c-0.021,0.167-0.05,0.3-0.092,0.4c-0.041,0.104-0.092,0.179-0.154,0.225c-0.058,0.05-0.129,0.075-0.199,0.075h-3.95v12.737
		c0,0.079-0.025,0.154-0.079,0.221c-0.055,0.062-0.143,0.116-0.263,0.158c-0.121,0.038-0.288,0.071-0.496,0.096
		s-0.467,0.038-0.774,0.038c-0.309,0-0.567-0.013-0.775-0.038s-0.375-0.058-0.496-0.096c-0.12-0.042-0.208-0.096-0.262-0.158
		c-0.055-0.067-0.079-0.142-0.079-0.221v-12.737h-3.95c-0.079,0-0.15-0.025-0.209-0.075c-0.054-0.046-0.104-0.121-0.146-0.225
		c-0.038-0.1-0.07-0.233-0.092-0.4c-0.021-0.17-0.029-0.371-0.029-0.608c0-0.241,0.009-0.45,0.029-0.621
		c0.021-0.171,0.054-0.309,0.092-0.408c0.042-0.104,0.092-0.175,0.146-0.221c0.059-0.046,0.13-0.067,0.209-0.067h11.125
		c0.07,0,0.137,0.021,0.199,0.067c0.063,0.045,0.113,0.116,0.154,0.221c0.042,0.1,0.071,0.237,0.092,0.408
		S443.094,343.567,443.094,343.808L443.094,343.808z M454.451,357.029c0,0.238-0.008,0.434-0.029,0.596
		c-0.021,0.158-0.05,0.287-0.092,0.383c-0.041,0.1-0.092,0.171-0.153,0.217c-0.059,0.046-0.13,0.066-0.2,0.066h-7.925
		c-0.267,0-0.492-0.079-0.675-0.237c-0.184-0.158-0.275-0.417-0.275-0.775v-13.775c0-0.358,0.092-0.616,0.275-0.775
		c0.183-0.158,0.408-0.237,0.675-0.237h7.887c0.071,0,0.138,0.021,0.196,0.063c0.054,0.042,0.104,0.112,0.146,0.212
		c0.038,0.104,0.071,0.233,0.092,0.392c0.021,0.163,0.029,0.363,0.029,0.608c0,0.229-0.009,0.421-0.029,0.583
		c-0.021,0.158-0.05,0.287-0.092,0.383c-0.042,0.1-0.092,0.171-0.146,0.217c-0.059,0.045-0.125,0.066-0.196,0.066h-5.638v3.85h4.751
		c0.075,0,0.142,0.021,0.2,0.066c0.062,0.046,0.112,0.113,0.153,0.208c0.042,0.091,0.071,0.216,0.092,0.379
		c0.021,0.158,0.029,0.35,0.029,0.575c0,0.238-0.009,0.434-0.029,0.587c-0.021,0.154-0.05,0.279-0.092,0.371
		c-0.041,0.096-0.092,0.162-0.153,0.2c-0.059,0.042-0.125,0.063-0.2,0.063h-4.751v4.45h5.676c0.075,0,0.142,0.021,0.2,0.067
		c0.062,0.045,0.112,0.116,0.153,0.216c0.042,0.096,0.071,0.225,0.092,0.383C454.443,356.596,454.451,356.792,454.451,357.029
		L454.451,357.029z M468.688,357.083c0.146,0.288,0.241,0.513,0.287,0.684s0.017,0.304-0.079,0.392
		c-0.1,0.092-0.275,0.146-0.529,0.171c-0.258,0.025-0.612,0.038-1.066,0.038c-0.38,0-0.684-0.009-0.9-0.025
		c-0.221-0.016-0.392-0.042-0.517-0.079c-0.125-0.037-0.217-0.087-0.275-0.154c-0.058-0.062-0.104-0.146-0.146-0.241l-2.975-5.704
		l-2.95,5.704c-0.05,0.096-0.1,0.179-0.158,0.241c-0.059,0.067-0.15,0.117-0.275,0.154c-0.129,0.038-0.304,0.063-0.529,0.079
		c-0.225,0.017-0.521,0.025-0.888,0.025c-0.425,0-0.754-0.013-0.986-0.038c-0.229-0.025-0.388-0.079-0.472-0.171
		c-0.079-0.087-0.096-0.221-0.046-0.392c0.046-0.171,0.15-0.396,0.305-0.684l3.779-6.9l-3.517-6.483
		c-0.146-0.296-0.246-0.529-0.3-0.704c-0.051-0.175-0.034-0.304,0.062-0.392c0.092-0.083,0.267-0.137,0.517-0.158
		c0.255-0.021,0.613-0.029,1.075-0.029c0.384,0,0.688,0.008,0.913,0.025c0.225,0.017,0.399,0.042,0.529,0.079
		c0.133,0.038,0.225,0.088,0.274,0.154c0.054,0.063,0.104,0.146,0.154,0.242l2.787,5.229l2.688-5.229
		c0.049-0.096,0.1-0.179,0.153-0.242c0.05-0.066,0.138-0.116,0.254-0.154c0.117-0.037,0.279-0.062,0.488-0.079
		c0.208-0.017,0.495-0.025,0.862-0.025c0.404,0,0.725,0.008,0.963,0.029c0.232,0.021,0.396,0.075,0.487,0.167
		c0.087,0.087,0.112,0.221,0.066,0.392c-0.046,0.171-0.138,0.4-0.275,0.696l-3.517,6.446L468.688,357.083L468.688,357.083z
		 M476.55,352.142c0,0.475-0.046,0.804-0.134,0.992c-0.092,0.188-0.233,0.283-0.429,0.283h-5.088c-0.204,0-0.35-0.096-0.441-0.288
		c-0.088-0.191-0.133-0.521-0.133-0.987c0-0.458,0.045-0.779,0.133-0.967c0.092-0.188,0.237-0.283,0.441-0.283h5.088
		c0.1,0,0.183,0.021,0.25,0.063c0.07,0.042,0.129,0.108,0.179,0.208c0.046,0.096,0.084,0.229,0.104,0.392
		S476.55,351.913,476.55,352.142L476.55,352.142z M490.032,355.904c0,0.205-0.005,0.379-0.018,0.521
		c-0.012,0.142-0.032,0.267-0.058,0.367c-0.021,0.104-0.055,0.192-0.096,0.267c-0.042,0.071-0.104,0.154-0.196,0.246
		c-0.087,0.092-0.263,0.213-0.517,0.358c-0.258,0.142-0.57,0.284-0.941,0.417c-0.371,0.129-0.792,0.242-1.267,0.329
		c-0.476,0.087-0.992,0.133-1.546,0.133c-1.079,0-2.055-0.167-2.925-0.5c-0.871-0.333-1.612-0.833-2.221-1.496
		c-0.612-0.663-1.079-1.488-1.404-2.483c-0.325-0.992-0.487-2.146-0.487-3.462c0-1.342,0.179-2.533,0.537-3.575
		c0.358-1.042,0.858-1.917,1.5-2.625c0.642-0.708,1.412-1.242,2.313-1.608c0.896-0.367,1.888-0.55,2.971-0.55
		c0.438,0,0.858,0.038,1.267,0.112c0.408,0.071,0.783,0.167,1.129,0.288c0.347,0.117,0.654,0.254,0.934,0.408
		c0.274,0.159,0.471,0.292,0.579,0.4c0.108,0.113,0.184,0.204,0.225,0.275c0.042,0.075,0.075,0.167,0.096,0.279
		c0.025,0.117,0.047,0.25,0.059,0.404c0.013,0.154,0.018,0.342,0.018,0.571c0,0.242-0.009,0.45-0.025,0.621
		s-0.046,0.308-0.083,0.412c-0.042,0.104-0.093,0.184-0.146,0.229c-0.059,0.05-0.125,0.075-0.196,0.075
		c-0.12,0-0.274-0.071-0.462-0.212s-0.429-0.3-0.725-0.475c-0.296-0.175-0.65-0.333-1.063-0.475
		c-0.409-0.142-0.896-0.213-1.467-0.213c-0.625,0-1.184,0.129-1.675,0.384c-0.492,0.258-0.909,0.621-1.255,1.096
		c-0.346,0.479-0.607,1.054-0.787,1.729c-0.179,0.671-0.267,1.433-0.267,2.279c0,0.925,0.096,1.729,0.288,2.408
		c0.191,0.675,0.462,1.238,0.816,1.675c0.35,0.438,0.778,0.767,1.278,0.979c0.5,0.217,1.063,0.325,1.688,0.325
		c0.567,0,1.059-0.066,1.476-0.2c0.412-0.133,0.767-0.283,1.063-0.442c0.3-0.163,0.541-0.309,0.733-0.438
		c0.191-0.129,0.337-0.196,0.445-0.196c0.079,0,0.146,0.017,0.191,0.05c0.051,0.034,0.092,0.096,0.125,0.196
		c0.029,0.096,0.055,0.233,0.071,0.409C490.023,355.375,490.032,355.608,490.032,355.904L490.032,355.904z M502.969,343.808
		c0,0.238-0.009,0.438-0.029,0.608c-0.021,0.167-0.05,0.3-0.092,0.4c-0.041,0.104-0.092,0.179-0.154,0.225
		c-0.059,0.05-0.129,0.075-0.2,0.075h-3.949v12.737c0,0.079-0.025,0.154-0.079,0.221c-0.055,0.062-0.143,0.116-0.263,0.158
		c-0.121,0.038-0.288,0.071-0.496,0.096s-0.467,0.038-0.775,0.038c-0.308,0-0.566-0.013-0.774-0.038
		c-0.209-0.025-0.375-0.058-0.496-0.096c-0.121-0.042-0.208-0.096-0.263-0.158c-0.054-0.067-0.079-0.142-0.079-0.221v-12.737h-3.949
		c-0.08,0-0.15-0.025-0.209-0.075c-0.054-0.046-0.104-0.121-0.146-0.225c-0.038-0.1-0.071-0.233-0.092-0.4
		c-0.021-0.17-0.029-0.371-0.029-0.608c0-0.241,0.009-0.45,0.029-0.621s0.054-0.309,0.092-0.408
		c0.041-0.104,0.092-0.175,0.146-0.221c0.059-0.046,0.129-0.067,0.209-0.067h11.124c0.071,0,0.138,0.021,0.2,0.067
		c0.063,0.045,0.113,0.116,0.154,0.221c0.042,0.1,0.07,0.237,0.092,0.408C502.96,343.358,502.969,343.567,502.969,343.808
		L502.969,343.808z M515.801,347.292c0,0.892-0.137,1.675-0.416,2.358c-0.275,0.688-0.68,1.263-1.213,1.729
		c-0.529,0.471-1.179,0.825-1.95,1.071c-0.771,0.246-1.679,0.367-2.725,0.367h-1.321v5.037c0,0.083-0.024,0.154-0.079,0.221
		c-0.054,0.062-0.142,0.116-0.262,0.158c-0.121,0.042-0.284,0.071-0.488,0.096c-0.199,0.025-0.462,0.038-0.774,0.038
		c-0.309,0-0.566-0.013-0.775-0.038c-0.208-0.025-0.371-0.058-0.491-0.096c-0.121-0.042-0.209-0.096-0.255-0.158
		c-0.05-0.067-0.074-0.142-0.074-0.221v-14.212c0-0.383,0.1-0.671,0.3-0.862c0.2-0.192,0.462-0.288,0.787-0.288h3.726
		c0.375,0,0.733,0.012,1.07,0.042c0.338,0.029,0.742,0.092,1.217,0.184c0.471,0.096,0.95,0.267,1.434,0.521
		c0.483,0.25,0.899,0.57,1.241,0.958c0.342,0.387,0.604,0.837,0.783,1.358C515.714,346.071,515.801,346.65,515.801,347.292
		L515.801,347.292z M512.451,347.525c0-0.554-0.1-1.013-0.296-1.371c-0.196-0.358-0.438-0.625-0.725-0.796
		c-0.288-0.171-0.588-0.279-0.9-0.325c-0.316-0.046-0.642-0.066-0.979-0.066h-1.375v5.375h1.45c0.517,0,0.946-0.071,1.296-0.208
		c0.346-0.138,0.634-0.333,0.854-0.583c0.221-0.246,0.388-0.546,0.504-0.892C512.393,348.313,512.451,347.933,512.451,347.525
		L512.451,347.525z M532.608,350.208c0,1.308-0.162,2.479-0.487,3.512c-0.325,1.034-0.809,1.913-1.454,2.629
		c-0.642,0.721-1.438,1.271-2.384,1.65c-0.949,0.379-2.045,0.566-3.291,0.566c-1.229,0-2.3-0.162-3.213-0.483
		c-0.916-0.321-1.679-0.808-2.292-1.471c-0.607-0.658-1.066-1.496-1.37-2.512c-0.305-1.017-0.458-2.221-0.458-3.613
		c0-1.275,0.162-2.425,0.487-3.446s0.809-1.887,1.454-2.604c0.642-0.717,1.438-1.267,2.383-1.646c0.95-0.383,2.05-0.575,3.305-0.575
		c1.195,0,2.25,0.159,3.167,0.475c0.912,0.317,1.679,0.804,2.291,1.467c0.617,0.658,1.079,1.488,1.392,2.492
		C532.45,347.658,532.608,348.842,532.608,350.208L532.608,350.208z M529.233,350.371c0-0.829-0.066-1.583-0.195-2.262
		c-0.13-0.679-0.351-1.263-0.663-1.746c-0.313-0.483-0.729-0.858-1.25-1.125c-0.521-0.262-1.171-0.396-1.949-0.396
		c-0.788,0-1.446,0.15-1.971,0.445c-0.529,0.296-0.959,0.696-1.284,1.192c-0.325,0.496-0.554,1.075-0.688,1.738
		c-0.133,0.667-0.199,1.366-0.199,2.108c0,0.862,0.066,1.637,0.195,2.325s0.35,1.275,0.658,1.767
		c0.309,0.488,0.721,0.858,1.242,1.117c0.521,0.254,1.175,0.383,1.962,0.383c0.788,0,1.446-0.146,1.971-0.442
		c0.529-0.292,0.959-0.691,1.284-1.195c0.324-0.504,0.554-1.092,0.687-1.763C529.167,351.846,529.233,351.129,529.233,350.371
		L529.233,350.371z M548.295,357.879c0,0.079-0.024,0.15-0.078,0.212c-0.055,0.063-0.143,0.113-0.263,0.154
		c-0.121,0.038-0.288,0.071-0.496,0.092c-0.208,0.021-0.467,0.029-0.775,0.029c-0.308,0-0.566-0.009-0.774-0.029
		c-0.208-0.021-0.371-0.054-0.487-0.092c-0.121-0.042-0.204-0.092-0.25-0.154c-0.051-0.063-0.075-0.133-0.075-0.212v-8.329
		c0-0.317,0.004-0.629,0.012-0.933c0.009-0.309,0.021-0.579,0.038-0.813h-0.025c-0.066,0.112-0.142,0.246-0.233,0.396
		c-0.091,0.15-0.188,0.309-0.287,0.475c-0.104,0.167-0.213,0.337-0.325,0.513c-0.116,0.175-0.229,0.346-0.342,0.508l-5.487,8.196
		c-0.066,0.087-0.133,0.167-0.2,0.229c-0.07,0.067-0.158,0.117-0.271,0.154c-0.108,0.037-0.241,0.063-0.399,0.075
		c-0.159,0.012-0.367,0.017-0.617,0.017c-0.316,0-0.575-0.009-0.767-0.029c-0.196-0.021-0.35-0.054-0.458-0.092
		c-0.113-0.042-0.188-0.096-0.226-0.158c-0.041-0.066-0.063-0.146-0.063-0.233v-14.95c0-0.08,0.025-0.15,0.079-0.213
		c0.055-0.063,0.142-0.112,0.267-0.154c0.125-0.038,0.292-0.071,0.496-0.092c0.2-0.021,0.458-0.029,0.767-0.029
		c0.313,0,0.575,0.008,0.775,0.029c0.204,0.021,0.366,0.054,0.487,0.092c0.121,0.042,0.208,0.091,0.254,0.154
		c0.05,0.063,0.075,0.133,0.075,0.213v8.379c0,0.258-0.004,0.538-0.013,0.829c-0.008,0.296-0.021,0.58-0.037,0.854h0.024
		c0.143-0.242,0.317-0.538,0.529-0.879c0.213-0.342,0.434-0.675,0.658-1l5.496-8.196c0.059-0.079,0.117-0.15,0.184-0.212
		s0.154-0.113,0.263-0.154c0.107-0.038,0.245-0.066,0.408-0.083c0.162-0.017,0.371-0.025,0.625-0.025
		c0.308,0,0.558,0.008,0.75,0.029c0.191,0.021,0.342,0.054,0.458,0.092c0.112,0.042,0.191,0.091,0.237,0.154
		s0.066,0.138,0.066,0.225V357.879L548.295,357.879z M546.445,338.242c0,0.45-0.079,0.883-0.233,1.296s-0.404,0.779-0.75,1.091
		c-0.346,0.317-0.804,0.567-1.37,0.754c-0.567,0.188-1.259,0.283-2.084,0.283c-0.8,0-1.479-0.087-2.041-0.258
		c-0.563-0.171-1.021-0.408-1.376-0.704c-0.354-0.3-0.612-0.658-0.774-1.079c-0.162-0.425-0.246-0.883-0.246-1.383
		c0-0.121,0.021-0.221,0.066-0.3s0.121-0.142,0.226-0.191c0.108-0.046,0.25-0.083,0.434-0.104c0.183-0.021,0.416-0.029,0.691-0.029
		c0.263,0,0.475,0.013,0.65,0.038c0.17,0.025,0.3,0.062,0.387,0.108c0.092,0.05,0.154,0.112,0.192,0.191
		c0.037,0.079,0.054,0.171,0.054,0.275c0,0.196,0.037,0.384,0.116,0.554c0.08,0.171,0.192,0.321,0.342,0.446
		c0.154,0.129,0.342,0.233,0.563,0.317c0.221,0.079,0.467,0.121,0.733,0.121c0.263,0,0.5-0.038,0.713-0.117
		c0.212-0.079,0.396-0.179,0.55-0.308c0.15-0.125,0.263-0.275,0.342-0.454c0.079-0.175,0.116-0.371,0.116-0.583
		c0-0.096,0.018-0.184,0.05-0.254c0.029-0.075,0.097-0.137,0.188-0.187c0.091-0.046,0.216-0.083,0.375-0.108
		c0.158-0.025,0.362-0.038,0.604-0.038c0.292,0,0.533,0.008,0.726,0.029c0.188,0.021,0.342,0.059,0.454,0.104
		c0.112,0.05,0.191,0.112,0.237,0.191S546.445,338.121,546.445,338.242L546.445,338.242z M557.095,352.142
		c0,0.475-0.046,0.804-0.133,0.992c-0.093,0.188-0.234,0.283-0.43,0.283h-5.088c-0.204,0-0.35-0.096-0.441-0.288
		c-0.088-0.191-0.133-0.521-0.133-0.987c0-0.458,0.045-0.779,0.133-0.967c0.092-0.188,0.237-0.283,0.441-0.283h5.088
		c0.1,0,0.184,0.021,0.25,0.063c0.07,0.042,0.129,0.108,0.18,0.208c0.045,0.096,0.083,0.229,0.104,0.392
		C557.087,351.717,557.095,351.913,557.095,352.142L557.095,352.142z M570.427,350.271c0,1.409-0.162,2.633-0.483,3.671
		c-0.32,1.038-0.787,1.9-1.404,2.583c-0.611,0.683-1.366,1.196-2.258,1.533s-1.921,0.508-3.083,0.508
		c-0.4,0-0.809-0.029-1.226-0.091c-0.421-0.059-0.816-0.142-1.188-0.242c-0.37-0.1-0.699-0.221-0.987-0.358
		c-0.291-0.138-0.491-0.263-0.604-0.371c-0.116-0.108-0.191-0.2-0.225-0.271c-0.037-0.075-0.07-0.17-0.092-0.291
		c-0.024-0.117-0.046-0.259-0.058-0.429c-0.013-0.167-0.017-0.375-0.017-0.629c0-0.4,0.037-0.692,0.107-0.871
		c0.075-0.179,0.18-0.271,0.321-0.271c0.096,0,0.229,0.063,0.4,0.192c0.171,0.129,0.403,0.267,0.699,0.413
		c0.292,0.15,0.659,0.288,1.104,0.408c0.445,0.125,0.987,0.188,1.634,0.188c0.574,0,1.1-0.092,1.563-0.275
		c0.462-0.183,0.866-0.462,1.204-0.837c0.337-0.375,0.604-0.846,0.8-1.408c0.195-0.563,0.309-1.225,0.342-1.979h-6.571
		c-0.083,0-0.154-0.021-0.208-0.066c-0.059-0.046-0.108-0.117-0.15-0.217c-0.037-0.096-0.07-0.225-0.092-0.383
		c-0.021-0.163-0.028-0.354-0.028-0.583c0-0.229,0.008-0.425,0.028-0.587c0.021-0.163,0.055-0.292,0.092-0.387
		c0.042-0.092,0.092-0.163,0.15-0.208c0.054-0.046,0.125-0.067,0.208-0.067h6.533c-0.054-0.663-0.191-1.246-0.404-1.758
		c-0.212-0.508-0.487-0.938-0.829-1.288c-0.346-0.354-0.754-0.616-1.237-0.792c-0.479-0.175-1.013-0.262-1.592-0.262
		c-0.529,0-0.996,0.063-1.404,0.183c-0.408,0.121-0.762,0.254-1.058,0.4c-0.3,0.142-0.542,0.279-0.729,0.404
		s-0.325,0.188-0.417,0.188c-0.05,0-0.096-0.017-0.142-0.054c-0.041-0.038-0.083-0.1-0.116-0.183c-0.029-0.088-0.059-0.2-0.079-0.35
		c-0.021-0.146-0.029-0.329-0.029-0.546c0-0.246,0.004-0.454,0.017-0.625s0.033-0.309,0.059-0.421
		c0.024-0.108,0.054-0.204,0.092-0.279c0.033-0.079,0.091-0.154,0.17-0.225c0.075-0.075,0.233-0.175,0.472-0.309
		c0.232-0.133,0.533-0.262,0.896-0.379c0.362-0.116,0.774-0.216,1.233-0.3c0.463-0.087,0.967-0.129,1.513-0.129
		c1.083,0,2.063,0.171,2.938,0.509s1.62,0.846,2.229,1.521c0.613,0.675,1.084,1.516,1.413,2.521
		C570.261,347.775,570.427,348.941,570.427,350.271L570.427,350.271z M584.943,357.867c0,0.087-0.025,0.162-0.075,0.225
		c-0.046,0.063-0.134,0.113-0.263,0.154c-0.125,0.038-0.296,0.071-0.509,0.092c-0.212,0.021-0.483,0.029-0.816,0.029
		c-0.354,0-0.638-0.009-0.85-0.029c-0.217-0.021-0.392-0.054-0.521-0.1c-0.133-0.046-0.229-0.104-0.295-0.183
		c-0.063-0.075-0.113-0.171-0.146-0.288l-1.271-3.521c-0.18-0.517-0.367-0.946-0.563-1.292c-0.196-0.346-0.413-0.629-0.65-0.846
		c-0.233-0.213-0.504-0.367-0.804-0.458c-0.305-0.087-0.642-0.133-1.017-0.133h-0.721v6.337c0,0.087-0.025,0.163-0.075,0.225
		c-0.046,0.063-0.134,0.112-0.255,0.158c-0.12,0.046-0.283,0.079-0.487,0.1c-0.199,0.021-0.462,0.029-0.774,0.029
		c-0.309,0-0.567-0.009-0.775-0.029c-0.208-0.021-0.371-0.054-0.491-0.1c-0.121-0.046-0.209-0.096-0.263-0.158
		c-0.055-0.063-0.079-0.138-0.079-0.225v-14.938c0-0.087,0.024-0.163,0.079-0.225c0.054-0.063,0.142-0.112,0.263-0.154
		c0.12-0.038,0.283-0.071,0.491-0.092s0.467-0.029,0.775-0.029c0.313,0,0.575,0.008,0.774,0.029c0.204,0.021,0.367,0.05,0.487,0.092
		c0.121,0.042,0.209,0.091,0.255,0.154c0.05,0.059,0.075,0.133,0.075,0.225v5.925h0.721c0.366,0,0.691-0.05,0.967-0.146
		c0.278-0.1,0.528-0.254,0.754-0.462c0.225-0.212,0.429-0.488,0.612-0.825s0.358-0.754,0.533-1.25l1.063-3.146
		c0.042-0.113,0.088-0.208,0.146-0.284c0.059-0.079,0.15-0.142,0.275-0.184c0.125-0.045,0.292-0.079,0.5-0.1
		c0.204-0.021,0.483-0.029,0.834-0.029c0.316,0,0.578,0.008,0.783,0.029c0.208,0.021,0.37,0.05,0.487,0.087
		c0.12,0.038,0.199,0.083,0.237,0.146c0.042,0.063,0.063,0.137,0.063,0.225c0,0.104-0.017,0.237-0.055,0.392
		c-0.037,0.154-0.1,0.358-0.191,0.608l-1.059,2.805c-0.195,0.521-0.391,0.966-0.587,1.329c-0.196,0.366-0.4,0.679-0.617,0.933
		c-0.212,0.258-0.441,0.467-0.683,0.629c-0.238,0.162-0.505,0.296-0.796,0.404v0.008c0.325,0.142,0.62,0.296,0.883,0.471
		c0.267,0.179,0.517,0.4,0.75,0.667c0.229,0.271,0.454,0.6,0.667,0.992c0.208,0.392,0.425,0.871,0.646,1.441l1.296,3.279
		c0.134,0.333,0.209,0.563,0.233,0.692C584.931,357.679,584.943,357.783,584.943,357.867L584.943,357.867z M597.663,355.904
		c0,0.205-0.005,0.379-0.017,0.521c-0.013,0.142-0.033,0.267-0.059,0.367c-0.021,0.104-0.055,0.192-0.096,0.267
		c-0.042,0.071-0.104,0.154-0.196,0.246c-0.087,0.092-0.262,0.213-0.517,0.358c-0.258,0.142-0.57,0.284-0.941,0.417
		c-0.371,0.129-0.792,0.242-1.267,0.329c-0.476,0.087-0.992,0.133-1.546,0.133c-1.079,0-2.054-0.167-2.925-0.5
		s-1.612-0.833-2.221-1.496c-0.613-0.663-1.079-1.488-1.404-2.483c-0.325-0.992-0.487-2.146-0.487-3.462
		c0-1.342,0.179-2.533,0.537-3.575c0.358-1.042,0.858-1.917,1.5-2.625c0.642-0.708,1.412-1.242,2.313-1.608
		c0.896-0.367,1.888-0.55,2.971-0.55c0.438,0,0.858,0.038,1.267,0.112c0.408,0.071,0.783,0.167,1.129,0.288
		c0.347,0.117,0.654,0.254,0.934,0.408c0.275,0.159,0.471,0.292,0.579,0.4c0.108,0.113,0.184,0.204,0.226,0.275
		c0.041,0.075,0.074,0.167,0.096,0.279c0.024,0.117,0.046,0.25,0.058,0.404c0.013,0.154,0.018,0.342,0.018,0.571
		c0,0.242-0.009,0.45-0.025,0.621s-0.046,0.308-0.083,0.412c-0.042,0.104-0.092,0.184-0.146,0.229
		c-0.059,0.05-0.125,0.075-0.195,0.075c-0.121,0-0.275-0.071-0.463-0.212s-0.429-0.3-0.725-0.475
		c-0.296-0.175-0.65-0.333-1.063-0.475c-0.409-0.142-0.896-0.213-1.467-0.213c-0.625,0-1.184,0.129-1.675,0.384
		c-0.492,0.258-0.909,0.621-1.255,1.096c-0.346,0.479-0.608,1.054-0.787,1.729c-0.18,0.671-0.267,1.433-0.267,2.279
		c0,0.925,0.096,1.729,0.287,2.408c0.192,0.675,0.463,1.238,0.817,1.675c0.35,0.438,0.778,0.767,1.278,0.979
		c0.5,0.217,1.063,0.325,1.688,0.325c0.567,0,1.059-0.066,1.476-0.2c0.412-0.133,0.767-0.283,1.063-0.442
		c0.3-0.163,0.541-0.309,0.733-0.438c0.191-0.129,0.337-0.196,0.445-0.196c0.079,0,0.146,0.017,0.192,0.05
		c0.05,0.034,0.091,0.096,0.125,0.196c0.028,0.096,0.054,0.233,0.07,0.409C597.654,355.375,597.663,355.608,597.663,355.904
		L597.663,355.904z M612.399,357.879c0,0.079-0.025,0.15-0.075,0.212c-0.046,0.063-0.134,0.113-0.254,0.154
		c-0.121,0.038-0.283,0.071-0.492,0.092c-0.208,0.021-0.467,0.029-0.771,0.029c-0.309,0-0.566-0.009-0.775-0.029
		c-0.208-0.021-0.37-0.054-0.491-0.092c-0.121-0.042-0.209-0.092-0.263-0.154s-0.079-0.133-0.079-0.212v-12.712h-5.9v12.712
		c0,0.079-0.024,0.15-0.079,0.212c-0.054,0.063-0.142,0.113-0.262,0.154c-0.121,0.038-0.284,0.071-0.488,0.092
		c-0.199,0.021-0.462,0.029-0.774,0.029c-0.309,0-0.567-0.009-0.775-0.029c-0.208-0.021-0.371-0.054-0.491-0.092
		c-0.121-0.042-0.209-0.092-0.255-0.154c-0.05-0.063-0.074-0.133-0.074-0.212v-14.375c0-0.341,0.087-0.596,0.258-0.762
		c0.171-0.167,0.396-0.25,0.68-0.25h10.433c0.296,0,0.521,0.083,0.684,0.25c0.162,0.167,0.246,0.421,0.246,0.762V357.879z"/>
	<path fill-rule="evenodd" clip-rule="evenodd" fill="#363739" d="M625.323,357.029c0,0.238-0.008,0.434-0.029,0.596
		c-0.021,0.158-0.05,0.287-0.091,0.383c-0.042,0.1-0.092,0.171-0.154,0.217c-0.059,0.046-0.13,0.066-0.2,0.066h-7.925
		c-0.267,0-0.492-0.079-0.675-0.237c-0.184-0.158-0.275-0.417-0.275-0.775v-13.775c0-0.358,0.092-0.616,0.275-0.775
		c0.183-0.158,0.408-0.237,0.675-0.237h7.887c0.071,0,0.138,0.021,0.196,0.063c0.054,0.042,0.104,0.112,0.146,0.212
		c0.038,0.104,0.071,0.233,0.092,0.392c0.021,0.163,0.029,0.363,0.029,0.608c0,0.229-0.009,0.421-0.029,0.583
		c-0.021,0.158-0.05,0.287-0.092,0.383c-0.041,0.1-0.092,0.171-0.146,0.217c-0.059,0.045-0.125,0.066-0.196,0.066h-5.637v3.85h4.75
		c0.074,0,0.142,0.021,0.199,0.066c0.063,0.046,0.113,0.113,0.154,0.208c0.042,0.091,0.071,0.216,0.092,0.379
		c0.021,0.158,0.029,0.35,0.029,0.575c0,0.238-0.009,0.434-0.029,0.587c-0.021,0.154-0.05,0.279-0.092,0.371
		c-0.041,0.096-0.092,0.162-0.154,0.2c-0.058,0.042-0.125,0.063-0.199,0.063h-4.75v4.45h5.675c0.075,0,0.142,0.021,0.2,0.067
		c0.063,0.045,0.112,0.116,0.154,0.216c0.041,0.096,0.07,0.225,0.091,0.383C625.315,356.596,625.323,356.792,625.323,357.029
		L625.323,357.029z M639.123,347.292c0,0.892-0.138,1.675-0.417,2.358c-0.275,0.688-0.679,1.263-1.213,1.729
		c-0.529,0.471-1.179,0.825-1.949,1.071c-0.771,0.246-1.68,0.367-2.726,0.367h-1.32v5.037c0,0.083-0.025,0.154-0.079,0.221
		c-0.055,0.062-0.142,0.116-0.263,0.158c-0.121,0.042-0.283,0.071-0.488,0.096c-0.199,0.025-0.462,0.038-0.774,0.038
		c-0.309,0-0.566-0.013-0.775-0.038c-0.208-0.025-0.37-0.058-0.491-0.096c-0.121-0.042-0.208-0.096-0.254-0.158
		c-0.05-0.067-0.075-0.142-0.075-0.221v-14.212c0-0.383,0.1-0.671,0.3-0.862c0.2-0.192,0.463-0.288,0.787-0.288h3.726
		c0.375,0,0.733,0.012,1.07,0.042c0.338,0.029,0.742,0.092,1.217,0.184c0.471,0.096,0.95,0.267,1.434,0.521
		c0.483,0.25,0.9,0.57,1.241,0.958c0.342,0.387,0.604,0.837,0.784,1.358C639.035,346.071,639.123,346.65,639.123,347.292
		L639.123,347.292z M635.772,347.525c0-0.554-0.1-1.013-0.296-1.371c-0.195-0.358-0.438-0.625-0.725-0.796s-0.588-0.279-0.9-0.325
		c-0.316-0.046-0.642-0.066-0.979-0.066h-1.375v5.375h1.449c0.518,0,0.946-0.071,1.296-0.208c0.347-0.138,0.634-0.333,0.854-0.583
		c0.221-0.246,0.388-0.546,0.504-0.892C635.715,348.313,635.772,347.933,635.772,347.525L635.772,347.525z M652.122,343.808
		c0,0.238-0.009,0.438-0.029,0.608c-0.021,0.167-0.05,0.3-0.092,0.4c-0.041,0.104-0.092,0.179-0.154,0.225
		c-0.058,0.05-0.129,0.075-0.2,0.075h-3.949v12.737c0,0.079-0.025,0.154-0.08,0.221c-0.054,0.062-0.142,0.116-0.262,0.158
		c-0.121,0.038-0.288,0.071-0.496,0.096s-0.467,0.038-0.775,0.038c-0.308,0-0.566-0.013-0.774-0.038s-0.375-0.058-0.496-0.096
		c-0.12-0.042-0.208-0.096-0.263-0.158c-0.054-0.067-0.079-0.142-0.079-0.221v-12.737h-3.949c-0.079,0-0.15-0.025-0.209-0.075
		c-0.054-0.046-0.104-0.121-0.146-0.225c-0.038-0.1-0.071-0.233-0.092-0.4c-0.021-0.17-0.029-0.371-0.029-0.608
		c0-0.241,0.009-0.45,0.029-0.621s0.054-0.309,0.092-0.408c0.041-0.104,0.092-0.175,0.146-0.221c0.059-0.046,0.13-0.067,0.209-0.067
		h11.124c0.071,0,0.138,0.021,0.2,0.067c0.063,0.045,0.113,0.116,0.154,0.221c0.042,0.1,0.071,0.237,0.092,0.408
		S652.122,343.567,652.122,343.808z"/>
</g>
<g>
	<path fill-rule="evenodd" clip-rule="evenodd" fill="#0085C8" d="M598.341,281v-15.726h34.213c0-5.402-2.36-9.664-7.083-12.825
		c-4.241-2.821-9.443-4.221-15.605-4.221c-4.481,0-8.523,0.72-12.125,2.161c-2.721,1.121-5.322,2.721-7.803,4.802l-9.844-13.325
		c4.322-2.961,8.764-5.202,13.325-6.723c5.202-1.76,10.804-2.641,16.807-2.641c15.126,0,26.29,4.602,33.492,13.786
		c5.603,7.103,8.404,16.187,8.404,27.21c0,12.145-3.762,22.048-11.285,29.731c-8.163,8.303-19.247,12.465-33.253,12.465
		c-5.922,0-11.444-0.92-16.566-2.761c-4.081-1.44-8.043-3.521-11.884-6.242l10.804-12.485c2.961,2.241,5.883,3.761,8.764,4.562
		c2.881,0.801,6.122,1.201,9.724,1.201c8.003,0,14.045-1.941,18.127-5.842c3.361-3.182,5.361-7.563,6.002-13.125H598.341z"/>
	<path fill-rule="evenodd" clip-rule="evenodd" fill="#0085C8" d="M572.38,239.783l-9.964,12.364c-3.201-2.4-3.432-2.041-3.974-2.24
		c-2.971-1.092-6.322-1.68-10.083-1.68c-7.283,0-13.086,2.381-17.407,7.123c-4.322,4.762-6.482,11.004-6.482,18.747
		c0,7.183,1.801,13.125,5.402,17.847c4.081,5.342,9.804,8.023,17.166,8.023c4.002,0,7.663-0.581,10.984-1.721
		c2.124-0.729,0.797-0.043,1.356-0.409c0.314-0.206,2.153-1.006,3.278-1.944l9.963,12.845c-5.385,2.618-4.573,2.653-9.855,4.374
		s-11.325,2.581-18.127,2.581c-12.325,0-22.169-4.242-29.532-12.705c-6.802-7.843-10.203-17.467-10.203-28.892
		c0-10.304,2.841-19.308,8.522-26.97c7.203-9.744,17.688-14.626,31.453-14.626c6.802,0,12.935,0.583,18.066,2.641
		C567.456,236.951,566.827,236.793,572.38,239.783z"/>
	<polygon fill-rule="evenodd" clip-rule="evenodd" fill="#0085C8" points="454.251,314.132 454.251,249.907 431.02,249.907 
		431.02,234.182 496.811,234.182 496.811,249.907 473.698,249.907 473.698,314.132 	"/>
</g>
</svg>
